<?xml version="1.0" encoding="utf-8"?>
<svg version="1.1" xmlns:xlink="http://www.w3.org/1999/xlink" width="50px" height="41px" xmlns="http://www.w3.org/2000/svg">
  <g transform="matrix(1 0 0 1 -374 -355 )">
    <path d="M 15.567129629629632 36.16619318181818  C 16.300154320987655 35.42850378787879  16.666666666666664 34.55492424242425  16.666666666666664 33.54545454545454  C 16.666666666666664 32.535984848484844  16.300154320987655 31.6624053030303  15.567129629629632 30.92471590909091  C 14.834104938271608 30.187026515151516  13.96604938271605 29.81818181818182  12.962962962962962 29.81818181818182  C 11.959876543209878 29.81818181818182  11.091820987654321 30.187026515151516  10.358796296296296 30.92471590909091  C 9.62577160493827 31.6624053030303  9.25925925925926 32.535984848484844  9.25925925925926 33.54545454545454  C 9.25925925925926 34.55492424242425  9.62577160493827 35.42850378787879  10.358796296296296 36.16619318181818  C 11.091820987654321 36.90388257575757  11.959876543209878 37.27272727272727  12.962962962962962 37.27272727272727  C 13.96604938271605 37.27272727272727  14.834104938271608 36.90388257575757  15.567129629629632 36.16619318181818  Z M 5.555555555555555 17.76278409090909  L 5.555555555555555 19  L 16.666666666666664 19  L 16.666666666666664 11.181818181818182  L 12.094907407407407 11.181818181818182  C 11.844135802469138 11.181818181818182  11.631944444444445 11.269176136363638  11.458333333333332 11.443892045454547  L 5.815972222222222 17.12215909090909  C 5.642361111111112 17.296875  5.555555555555555 17.510416666666664  5.555555555555555 17.76278409090909  Z M 41.49305555555556 36.16619318181818  C 42.226080246913575 35.42850378787879  42.592592592592595 34.55492424242425  42.592592592592595 33.54545454545454  C 42.592592592592595 32.535984848484844  42.226080246913575 31.6624053030303  41.49305555555556 30.92471590909091  C 40.76003086419753 30.187026515151516  39.891975308641975 29.81818181818182  38.88888888888889 29.81818181818182  C 37.885802469135804 29.81818181818182  37.017746913580254 30.187026515151516  36.28472222222222 30.92471590909091  C 35.5516975308642 31.6624053030303  35.18518518518518 32.535984848484844  35.18518518518518 33.54545454545454  C 35.18518518518518 34.55492424242425  35.5516975308642 35.42850378787879  36.28472222222222 36.16619318181818  C 37.017746913580254 36.90388257575757  37.885802469135804 37.27272727272727  38.88888888888889 37.27272727272727  C 39.891975308641975 37.27272727272727  40.76003086419753 36.90388257575757  41.49305555555556 36.16619318181818  Z M 49.45023148148148 0.5532670454545475  C 49.8167438271605 0.9221117424242368  50 1.358901515151513  50 1.863636363636362  L 50 31.68181818181818  C 50 31.973011363636363  49.961419753086425 32.23023200757575  49.88425925925926 32.45348011363636  C 49.8070987654321 32.676728219696976  49.676890432098766 32.856297348484844  49.49363425925926 32.9921875  C 49.31037808641975 33.128077651515156  49.151234567901234 33.23970170454546  49.0162037037037 33.32705965909091  C 48.88117283950618 33.41441761363636  48.65451388888889 33.47265625  48.336226851851855 33.50177556818182  C 48.01793981481482 33.53089488636364  47.800925925925924 33.550307765151516  47.68518518518518 33.56001420454546  C 47.56944444444444 33.56972064393939  47.323495370370374 33.56972064393939  46.94733796296296 33.56001420454546  C 46.57118055555556 33.550307765151516  46.35416666666667 33.54545454545454  46.2962962962963 33.54545454545454  C 46.2962962962963 35.603219696969695  45.57291666666667 37.36008522727273  44.126157407407405 38.81605113636364  C 42.679398148148145 40.27201704545455  40.933641975308646 41  38.88888888888889 41  C 36.84413580246914 41  35.098379629629626 40.27201704545455  33.651620370370374 38.81605113636364  C 32.20486111111111 37.36008522727273  31.48148148148148 35.603219696969695  31.48148148148148 33  L 20.37037037037037 33  C 20.37037037037037 35.603219696969695  19.64699074074074 37.36008522727273  18.20023148148148 38.81605113636364  C 16.75347222222222 40.27201704545455  15.007716049382719 41  12.962962962962962 41  C 10.91820987654321 41  9.172453703703704 40.27201704545455  7.725694444444445 38.81605113636364  C 6.278935185185184 37.36008522727273  5.555555555555555 35.603219696969695  5.555555555555555 33.54545454545454  L 3.7037037037037033 33.54545454545454  C 3.6458333333333335 33.54545454545454  3.4288194444444446 33.550307765151516  3.052662037037037 33.56001420454546  C 2.6765046296296298 33.56972064393939  2.430555555555556 33.56972064393939  2.314814814814815 33.56001420454546  C 2.199074074074074 33.550307765151516  1.9820601851851853 33.53089488636364  1.6637731481481484 33.50177556818182  C 1.3454861111111116 33.47265625  1.1188271604938278 33.41441761363636  0.9837962962962963 33.32705965909091  C 0.8487654320987658 33.23970170454546  0.6896219135802472 33.128077651515156  0.5063657407407407 32.9921875  C 0.3231095679012347 32.856297348484844  0.19290123456790137 32.676728219696976  0.11574074074074073 32.45348011363636  C 0.03858024691358052 32.23023200757575  0 31.973011363636363  0 31.68181818181818  C 0 31.177083333333336  0.18325617283950643 30.74029356060606  0.5497685185185185 30.371448863636363  C 0.9162808641975315 30.002604166666664  1.3503086419753092 29.81818181818182  1.8518518518518516 29.81818181818182  L 1.8518518518518516 20.5  C 1.8518518518518516 20.34469696969697  1.8470293209876545 20.00497159090909  1.837384259259259 19.480823863636363  C 1.8277391975308643 18.956676136363637  1.8277391975308643 18.587831439393934  1.837384259259259 18.37428977272727  C 1.8470293209876545 18.160748106060602  1.8711419753086427 17.825875946969695  1.9097222222222223 17.369673295454547  C 1.9483024691358029 16.91347064393939  2.0109953703703702 16.554332386363637  2.097800925925926 16.29225852272727  C 2.1846064814814814 16.03018465909091  2.319637345679013 15.734138257575754  2.5028935185185186 15.404119318181818  C 2.686149691358025 15.074100378787879  2.903163580246914 14.782907196969699  3.153935185185185 14.530539772727272  L 8.883101851851851 8.764914772727272  C 9.249614197530866 8.396070075757573  9.736689814814817 8.085464015151512  10.344328703703704 7.833096590909091  C 10.951967592592595 7.580729166666663  11.516203703703704 7.454545454545452  12.037037037037036 7.454545454545452  L 16.666666666666664 7.454545454545452  L 16.666666666666664 1.863636363636362  C 16.666666666666664 1.358901515151513  16.849922839506174 0.9221117424242368  17.216435185185187 0.5532670454545475  C 17.5829475308642 0.18442234848484462  18.016975308641978 0  18.51851851851852 0  L 48.148148148148145 0  C 48.6496913580247 0  49.083719135802475 0.18442234848484462  49.45023148148148 0.5532670454545475  Z " fill-rule="nonzero" fill="#000000" stroke="none" transform="matrix(1 0 0 1 374 355 )" />
  </g>
</svg>