<?xml version="1.0" encoding="utf-8"?>
<svg version="1.1" xmlns:xlink="http://www.w3.org/1999/xlink" width="50px" height="50px" xmlns="http://www.w3.org/2000/svg">
  <g transform="matrix(1 0 0 1 -515 -741 )">
    <path d="M 48.876953125 29.475911458333336  C 49.08311631944445 29.68207465277778  49.18619791666667 29.92621527777778  49.18619791666667 30.208333333333336  C 49.18619791666667 30.31684027777778  49.17534722222223 30.392795138888886  49.15364583333333 30.436197916666664  C 47.76475694444445 36.252170138888886  44.85677083333333 40.966796875  40.4296875 44.580078125  C 36.00260416666667 48.193359375  30.815972222222225 50  24.869791666666664 50  C 21.701388888888893 50  18.636067708333336 49.40321180555556  15.673828125 48.20963541666667  C 12.711588541666666 47.01605902777777  10.069444444444446 45.3125  7.747395833333333 43.09895833333333  L 3.5481770833333335 47.29817708333333  C 3.1358506944444446 47.71050347222223  2.6475694444444446 47.91666666666667  2.083333333333333 47.91666666666667  C 1.5190972222222223 47.91666666666667  1.030815972222222 47.71050347222223  0.6184895833333333 47.29817708333333  C 0.20616319444444445 46.88585069444444  0 46.39756944444444  0 45.83333333333333  L 0 31.25  C 0 30.685763888888886  0.20616319444444445 30.197482638888886  0.6184895833333333 29.78515625  C 1.030815972222222 29.372829861111104  1.5190972222222223 29.166666666666664  2.083333333333333 29  L 16.666666666666664 29  C 17.23090277777778 29.166666666666664  17.71918402777778 29.372829861111104  18.131510416666664 29.78515625  C 18.543836805555557 30.197482638888886  18.75 30.685763888888886  18.75 31.25  C 18.75 31.814236111111104  18.543836805555557 32.30251736111111  18.131510416666664 32.71484375  L 13.671875 37.174479166666664  C 15.212673611111112 38.60677083333333  16.959635416666664 39.71354166666667  18.912760416666664 40.49479166666667  C 20.865885416666664 41.27604166666667  22.89496527777778 41.66666666666667  25 41.66666666666667  C 27.90798611111111 41.66666666666667  30.620659722222225 40.96137152777777  33.13802083333333 39.55078125  C 35.65538194444445 38.140190972222214  37.673611111111114 36.197916666666664  39.19270833333333 33.723958333333336  C 39.431423611111114 33.35503472222222  40.00651041666667 32.08550347222222  40.91796875 29.915364583333336  C 41.091579861111114 29.416232638888886  41.41710069444445 29.166666666666664  41.89453125 29.166666666666664  L 48.14453125 29.166666666666664  C 48.42664930555556 29.166666666666664  48.67078993055556 29.269748263888886  48.876953125 29.475911458333336  Z M 49.38151041666667 2.7018229166666687  C 49.79383680555555 3.1141493055555527  50 3.6024305555555527  50 4.166666666666669  L 50 18.75  C 50 19.31423611111111  49.79383680555555 19.80251736111111  49.38151041666667 20.21484375  C 48.969184027777786 20.62717013888889  48.480902777777786 20.833333333333332  47.91666666666667 21  L 33.33333333333333 21  C 32.76909722222223 20.833333333333332  32.28081597222223 20.62717013888889  31.868489583333332 20.21484375  C 31.456163194444446 19.80251736111111  31.250000000000007 19.31423611111111  31.25 18.75  C 31.250000000000007 18.185763888888886  31.456163194444446 17.697482638888886  31.868489583333332 17.28515625  L 36.36067708333333 12.79296875  C 33.148871527777786 9.819878472222216  29.361979166666668 8.333333333333332  25 8.333333333333332  C 22.092013888888893 8.333333333333332  19.37934027777778 9.038628472222216  16.861979166666664 10.44921875  C 14.344618055555557 11.859809027777773  12.326388888888891 13.802083333333332  10.807291666666668 16.276041666666668  C 10.56857638888889 16.644965277777775  9.993489583333332 17.914496527777775  9.08203125 20.084635416666668  C 8.90842013888889 20.58376736111111  8.582899305555557 20.833333333333332  8.10546875 20.833333333333332  L 1.6276041666666667 20.833333333333332  C 1.345486111111111 20.833333333333332  1.1013454861111112 20.73025173611111  0.8951822916666666 20.524088541666668  C 0.6890190972222223 20.31792534722222  0.5859375 20.07378472222222  0.5859375 19.791666666666668  L 0.5859375 19.563802083333332  C 1.996527777777778 13.74782986111111  4.926215277777779 9.033203125  9.375 5.419921875  C 13.823784722222223 1.806640625  19.032118055555557 0  25 0  C 28.16840277777778 0  31.25 0.6022135416666685  34.24479166666667 1.806640625  C 37.23958333333333 3.0110677083333313  39.89800347222223 4.709201388888884  42.22005208333333 6.901041666666669  L 46.45182291666667 2.7018229166666687  C 46.86414930555556 2.2894965277777732  47.35243055555556 2.0833333333333313  47.91666666666667 2.0833333333333313  C 48.480902777777786 2.0833333333333313  48.969184027777786 2.2894965277777732  49.38151041666667 2.7018229166666687  Z " fill-rule="nonzero" fill="#ffffff" stroke="none" transform="matrix(1 0 0 1 515 741 )" />
  </g>
</svg>