<?xml version="1.0" encoding="utf-8"?>
<svg version="1.1" xmlns:xlink="http://www.w3.org/1999/xlink" width="37px" height="31px" xmlns="http://www.w3.org/2000/svg">
  <g transform="matrix(1 0 0 1 -713 -608 )">
    <path d="M 15.05484693877551 28.348046874999998  C 15.039115646258503 28.436848958333336  15.05484693877551 28.545833333333334  15.10204081632653 28.675  C 15.10204081632653 28.739583333333336  15.109906462585034 28.901041666666664  15.12563775510204 29.159375  C 15.14136904761905 29.417708333333334  15.1453018707483 29.631640625  15.137436224489797 29.801171874999998  C 15.129570578231295 29.970703125  15.105973639455783 30.160416666666666  15.066645408163266 30.3703125  C 15.02731717687075 30.580208333333335  14.948660714285715 30.737630208333336  14.830676020408164 30.842578125  C 14.712691326530614 30.947526041666666  14.551445578231295 31  14.346938775510203 31  L 6.795918367346939 31  C 4.92389455782313 31  3.3232355442176873 30.317838541666664  1.9939413265306123 28.953515624999998  C 0.6646471088435374 27.589192708333336  0 25.946354166666666  0 24.025000000000002  L 0 6.975  C 0 5.053645833333328  0.6646471088435374 3.4108072916666656  1.9939413265306123 2.046484375000001  C 3.3232355442176873 0.682161458333329  4.92389455782313 0  6.795918367346939 0  L 14.346938775510203 0  C 14.551445578231295 0  14.72842261904762 0.07669270833332897  14.877869897959183 0.2300781250000007  C 15.02731717687075 0.3834635416666655  15.10204081632653 0.5651041666666655  15.10204081632653 0.7750000000000007  C 15.10204081632653 0.8395833333333304  15.109906462585034 1.0010416666666648  15.12563775510204 1.2593750000000008  C 15.14136904761905 1.5177083333333297  15.1453018707483 1.7316406250000014  15.137436224489797 1.9011718749999986  C 15.129570578231295 2.070703124999999  15.105973639455783 2.2604166666666656  15.066645408163266 2.470312500000001  C 15.02731717687075 2.680208333333329  14.948660714285715 2.8376302083333305  14.830676020408164 2.9425781250000016  C 14.712691326530614 3.0475260416666656  14.551445578231295 3.099999999999999  14.346938775510203 3.099999999999999  L 6.795918367346939 3.099999999999999  C 5.75765306122449 3.099999999999999  4.868835034013607 3.479427083333328  4.129464285714286 4.23828125  C 3.3900935374149666 4.997135416666665  3.020408163265306 5.909375000000002  3 6.975  L 3 24.025000000000002  C 3.020408163265306 25.090625  3.3900935374149666 26.002864583333327  4.129464285714286 26.76171875  C 4.868835034013607 27.520572916666666  5.75765306122449 27.900000000000002  6.795918367346939 27.900000000000002  L 13.591836734693878 27.900000000000002  L 13.85140306122449 27.900000000000002  L 14.158163265306122 27.900000000000002  C 14.158163265306122 27.900000000000002  14.248618197278914 27.908072916666665  14.42952806122449 27.924218749999998  C 14.61043792517007 27.940364583333334  14.700892857142856 27.964583333333334  14.700892857142856 27.996875  C 14.700892857142856 28.029166666666665  14.763818027210885 28.073567708333336  14.889668367346939 28.130078125  C 15.015518707482995 28.186588541666666  15.070578231292519 28.259244791666664  15.05484693877551 28.348046874999998  Z M 36.55165816326531 14.41015625  C 36.850552721088434 14.716927083333333  37 15.080208333333333  37 15.5  C 37 15.919791666666663  36.850552721088434 16.283072916666665  36.55165816326531 16.58984375  L 23.714923469387756 29.76484375  C 23.416028911564624 30.071614583333336  23.062074829931976 30.224999999999998  22.653061224489797 30.224999999999998  C 22.24404761904762 30.224999999999998  21.890093537414966 30.071614583333336  21.591198979591837 29.76484375  C 21.29230442176871 29.458072916666666  21.142857142857142 29.094791666666666  21.142857142857142 28.675  L 21.142857142857142 21.7  L 10.571428571428571 21.7  C 10.162414965986395 21.7  9.808460884353742 21.546614583333334  9.509566326530614 21.239843750000002  C 9.210671768707483 20.933072916666664  9.061224489795919 20.569791666666664  9.061224489795919 20.150000000000002  L 9.061224489795919 10.85  C 9.061224489795919 10.43020833333333  9.210671768707483 10.06692708333333  9.509566326530614 9.76015625  C 9.808460884353742 9.453385416666666  10.162414965986395 9.3  10.571428571428571 9.3  L 21.142857142857142 9.3  L 21.142857142857142 2.3249999999999984  C 21.142857142857142 1.9052083333333283  21.29230442176871 1.5419270833333283  21.591198979591837 1.2351562499999986  C 21.890093537414966 0.9283854166666655  22.24404761904762 0.7750000000000007  22.653061224489797 0.7750000000000007  C 23.062074829931976 0.7750000000000007  23.416028911564624 0.9283854166666655  23.714923469387756 1.2351562499999986  L 36.55165816326531 14.41015625  Z " fill-rule="nonzero" fill="#000000" stroke="none" transform="matrix(1 0 0 1 713 608 )" />
  </g>
</svg>