<?xml version="1.0" encoding="utf-8"?>
<svg version="1.1" xmlns:xlink="http://www.w3.org/1999/xlink" width="37px" height="50px" xmlns="http://www.w3.org/2000/svg">
  <g transform="matrix(1 0 0 1 -381 -238 )">
    <path d="M 20.515128593040846 37.667410714285715  L 20.543116490166415 29.38058035714286  L 24.68532526475038 33.51004464285714  L 20.515128593040846 37.667410714285715  Z M 20.543116490166415 20.619419642857146  L 20.515128593040846 12.332589285714285  L 24.68532526475038 16.489955357142854  L 20.543116490166415 20.619419642857146  Z M 17 29.43638392857143  L 17 46.484375  L 29.863086232980333 33.53794642857143  L 21.29878971255673 25  L 29.863086232980333 16.46205357142857  L 17 3.515625  L 17 20.56361607142857  L 9.73978819969743 13.448660714285715  L 7.136913767019667 16.043526785714285  L 16.09304084720121 25  L 7.136913767019667 33.956473214285715  L 9.73978819969743 36.551339285714285  L 17 29.43638392857143  Z M 36.104387291981844 14.80189732142857  C 36.70146243066062 17.71298363095238  37 21.112351190476186  37 25  C 37 28.887648809523807  36.70146243066062 32.28701636904761  36.104387291981844 35.19810267857143  C 35.507312153303076 38.109188988095234  34.690998487140696 40.499441964285715  33.655446293494705 42.36886160714286  C 32.619894099848715 44.23828125  31.30912758446798 45.749627976190474  29.723146747352494 46.902901785714285  C 28.13716591023702 48.0561755952381  26.443898134140195 48.860677083333336  24.643343419062024 49.31640625  C 22.842788703983864 49.772135416666664  20.795007564296522 50  18.5 50  C 16.20499243570348 50  14.157211296016138 49.772135416666664  12.356656580937972 49.31640625  C 10.556101865859809 48.860677083333336  8.862834089762986 48.0561755952381  7.276853252647504 46.902901785714285  C 5.690872415532024 45.749627976190474  4.380105900151286 44.23828125  3.3445537065052946 42.36886160714286  C 2.309001512859304 40.499441964285715  1.492687846696924 38.109188988095234  0.8956127080181543 35.19810267857143  C 0.2985375693393849 32.28701636904761  0 28.887648809523807  0 25  C 0 21.112351190476186  0.2985375693393849 17.71298363095238  0.8956127080181543 14.80189732142857  C 1.492687846696924 11.890811011904756  2.309001512859304 9.500558035714285  3.3445537065052946 7.631138392857145  C 4.380105900151286 5.76171875  5.690872415532024 4.250372023809524  7.276853252647504 3.0970982142857153  C 8.862834089762986 1.9438244047619013  10.556101865859809 1.139322916666663  12.356656580937972 0.68359375  C 14.157211296016138 0.22786458333333703  16.20499243570348 0  18.5 0  C 20.795007564296522 0  22.842788703983864 0.22786458333333703  24.643343419062024 0.68359375  C 26.443898134140195 1.139322916666663  28.13716591023702 1.9438244047619013  29.723146747352494 3.0970982142857153  C 31.30912758446798 4.250372023809524  32.619894099848715 5.76171875  33.655446293494705 7.631138392857145  C 34.690998487140696 9.500558035714285  35.507312153303076 11.890811011904756  36.104387291981844 14.80189732142857  Z " fill-rule="nonzero" fill="#000000" stroke="none" transform="matrix(1 0 0 1 381 238 )" />
  </g>
</svg>