<?xml version="1.0" encoding="utf-8"?>
<svg version="1.1" xmlns:xlink="http://www.w3.org/1999/xlink" width="50px" height="43px" xmlns="http://www.w3.org/2000/svg">
  <g transform="matrix(1 0 0 1 -374 -128 )">
    <path d="M 6.891741071428571 36.085286458333336  C 7.0591517857142865 36.253255208333336  7.142857142857142 36.46788194444444  7.142857142857142 36.729166666666664  L 7.142857142857142 42.104166666666664  C 7.142857142857142 42.365451388888886  7.0591517857142865 42.580078125  6.891741071428571 42.748046875  C 6.724330357142858 42.916015625  6.510416666666667 43  6.25 43  L 0.8928571428571428 43  C 0.6324404761904762 43  0.4185267857142858 42.916015625  0.25111607142857145 42.748046875  C 0.08370535714285714 42.580078125  0 42.365451388888886  0 42.104166666666664  L 0 36.729166666666664  C 0 36.46788194444444  0.08370535714285714 36.253255208333336  0.25111607142857145 36.085286458333336  C 0.4185267857142858 35.917317708333336  0.6324404761904762 35.833333333333336  0.8928571428571428 35.833333333333336  L 6.25 35.833333333333336  C 6.510416666666667 35.833333333333336  6.724330357142858 35.917317708333336  6.891741071428571 36.085286458333336  Z M 17.606026785714285 32.501953125  C 17.7734375 32.669921875  17.857142857142858 32.884548611111114  17.857142857142858 33.145833333333336  L 17.857142857142858 42.104166666666664  C 17.857142857142858 42.365451388888886  17.7734375 42.580078125  17.606026785714285 42.748046875  C 17.438616071428573 42.916015625  17.22470238095238 43  16.964285714285715 43  L 11.607142857142858 43  C 11.346726190476193 43  11.132812500000002 42.916015625  10.965401785714286 42.748046875  C 10.797991071428571 42.580078125  10.714285714285714 42.365451388888886  10.714285714285714 42.104166666666664  L 10.714285714285714 33.145833333333336  C 10.714285714285714 32.884548611111114  10.797991071428571 32.669921875  10.965401785714286 32.501953125  C 11.132812500000002 32.333984375  11.346726190476193 32.25  11.607142857142858 32.25  L 16.964285714285715 32.25  C 17.22470238095238 32.25  17.438616071428573 32.333984375  17.606026785714285 32.501953125  Z M 28.3203125 25.33528645833333  C 28.487723214285715 25.50325520833333  28.57142857142857 25.71788194444444  28 25.97916666666667  L 28 42.104166666666664  C 28.57142857142857 42.365451388888886  28.487723214285715 42.580078125  28.3203125 42.748046875  C 28.152901785714285 42.916015625  27.9389880952381 43  27.67857142857143 43  L 22.321428571428573 43  C 22.061011904761905 43  21.84709821428572 42.916015625  21.6796875 42.748046875  C 21.512276785714285 42.580078125  21.428571428571427 42.365451388888886  22 42.104166666666664  L 22 25.97916666666667  C 21.428571428571427 25.71788194444444  21.512276785714285 25.50325520833333  21.6796875 25.33528645833333  C 21.84709821428572 25.16731770833333  22.061011904761905 25.08333333333333  22.321428571428573 25.08333333333333  L 27.67857142857143 25.08333333333333  C 27.9389880952381 25.08333333333333  28.152901785714285 25.16731770833333  28.3203125 25.33528645833333  Z M 39.034598214285715 14.585286458333336  C 39.20200892857143 14.753255208333336  39.285714285714285 14.967881944444445  39 15.229166666666664  L 39 42.104166666666664  C 39.285714285714285 42.365451388888886  39.20200892857143 42.580078125  39.034598214285715 42.748046875  C 38.8671875 42.916015625  38.65327380952381 43  38.392857142857146 43  L 33.035714285714285 43  C 32.77529761904762 43  32.56138392857143 42.916015625  32.393973214285715 42.748046875  C 32.2265625 42.580078125  32.142857142857146 42.365451388888886  32 42.104166666666664  L 32 15.229166666666664  C 32.142857142857146 14.967881944444445  32.2265625 14.753255208333336  32.393973214285715 14.585286458333336  C 32.56138392857143 14.417317708333336  32.77529761904762 14.333333333333336  33.035714285714285 14.333333333333336  L 38.392857142857146 14.333333333333336  C 38.65327380952381 14.333333333333336  38.8671875 14.417317708333336  39.034598214285715 14.585286458333336  Z M 49.74888392857143 0.251953125  C 49.916294642857146 0.419921875  50 0.6345486111111053  50 0.8958333333333349  L 50 42.104166666666664  C 50 42.365451388888886  49.916294642857146 42.580078125  49.74888392857143 42.748046875  C 49.581473214285715 42.916015625  49.367559523809526 43  49.107142857142854 43  L 43.75 43  C 43.48958333333334 43  43.27566964285715 42.916015625  43.10825892857143 42.748046875  C 42.940848214285715 42.580078125  42.857142857142854 42.365451388888886  42 42.104166666666664  L 42 0.8958333333333349  C 42.857142857142854 0.6345486111111053  42.940848214285715 0.419921875  43.10825892857143 0.251953125  C 43.27566964285715 0.083984375  43.48958333333334 0  43.75 0  L 49.107142857142854 0  C 49.367559523809526 0  49.581473214285715 0.083984375  49.74888392857143 0.251953125  Z " fill-rule="nonzero" fill="#000000" stroke="none" transform="matrix(1 0 0 1 374 128 )" />
  </g>
</svg>